<svg width="175" height="56" viewBox="0 0 175 56" fill="none" xmlns="http://www.w3.org/2000/svg">
<g opacity="0.9" clip-path="url(#clip0_1_478)">
<path d="M92.229 14.0713C92.229 16.0472 90.6435 17.639 88.6754 17.639C86.7073 17.639 85.1218 16.0472 85.1218 14.0713C85.1218 12.0953 86.6526 10.5035 88.6754 10.5035C90.6982 10.5584 92.229 12.1502 92.229 14.0713ZM77.5773 21.2616C77.5773 21.5909 77.5773 22.1398 77.5773 22.1398C77.5773 22.1398 75.8825 19.9443 72.2743 19.9443C66.3152 19.9443 61.6682 24.5 61.6682 30.8122C61.6682 37.0694 66.2605 41.68 72.2743 41.68C75.9372 41.68 77.5773 39.4296 77.5773 39.4296V40.3627C77.5773 40.8018 77.9053 41.1311 78.3427 41.1311H82.771V20.4932C82.771 20.4932 78.7254 20.4932 78.3427 20.4932C77.9053 20.4932 77.5773 20.8774 77.5773 21.2616ZM77.5773 34.4897C76.7573 35.6972 75.1172 36.7401 73.149 36.7401C69.6501 36.7401 66.9713 34.5446 66.9713 30.8122C66.9713 27.0798 69.6501 24.8842 73.149 24.8842C75.0625 24.8842 76.8119 25.982 77.5773 27.1347V34.4897ZM86.0512 20.4932H91.2996V41.1311H86.0512V20.4932ZM164.449 19.9443C160.84 19.9443 159.146 22.1398 159.146 22.1398V10.5584H153.897V41.1311C153.897 41.1311 157.943 41.1311 158.326 41.1311C158.763 41.1311 159.091 40.7469 159.091 40.3627V39.4296C159.091 39.4296 160.786 41.68 164.394 41.68C170.353 41.68 175 37.0694 175 30.8122C175 24.5549 170.353 19.9443 164.449 19.9443ZM163.574 36.6852C161.551 36.6852 159.966 35.6423 159.146 34.4348V27.0798C159.966 25.982 161.715 24.8293 163.574 24.8293C167.073 24.8293 169.752 27.0249 169.752 30.7573C169.752 34.4897 167.073 36.6852 163.574 36.6852ZM151.164 28.8911V41.186H145.915V29.4948C145.915 26.0918 144.822 24.7196 141.87 24.7196C140.284 24.7196 138.644 25.5429 137.605 26.7504V41.1311H132.357V20.4932H136.512C136.949 20.4932 137.277 20.8774 137.277 21.2616V22.1398C138.808 20.5481 140.831 19.9443 142.854 19.9443C145.15 19.9443 147.063 20.603 148.594 21.9203C150.453 23.4571 151.164 25.4331 151.164 28.8911ZM119.619 19.9443C116.011 19.9443 114.316 22.1398 114.316 22.1398V10.5584H109.067V41.1311C109.067 41.1311 113.113 41.1311 113.496 41.1311C113.933 41.1311 114.261 40.7469 114.261 40.3627V39.4296C114.261 39.4296 115.956 41.68 119.564 41.68C125.523 41.68 130.17 37.0694 130.17 30.8122C130.225 24.5549 125.578 19.9443 119.619 19.9443ZM118.744 36.6852C116.721 36.6852 115.136 35.6423 114.316 34.4348V27.0798C115.136 25.982 116.885 24.8293 118.744 24.8293C122.243 24.8293 124.922 27.0249 124.922 30.7573C124.922 34.4897 122.243 36.6852 118.744 36.6852ZM104.53 19.9443C106.115 19.9443 106.935 20.2187 106.935 20.2187V25.1038C106.935 25.1038 102.562 23.6218 99.8282 26.7504V41.186H94.5798V20.4932C94.5798 20.4932 98.6254 20.4932 99.0081 20.4932C99.4455 20.4932 99.7735 20.8774 99.7735 21.2616V22.1398C100.758 20.9872 102.89 19.9443 104.53 19.9443ZM50.0234 39.2649C49.7501 38.6063 49.4767 37.8927 49.2034 37.289C48.766 36.301 48.3286 35.3679 47.946 34.4897L47.8913 34.4348C44.119 26.2016 40.0734 17.8585 35.8091 9.62531L35.6451 9.29598C35.2077 8.47266 34.7704 7.59444 34.333 6.71623C33.7863 5.72825 33.2396 4.68537 32.3649 3.69738C30.6154 1.50185 28.1006 0.294312 25.4217 0.294312C22.6882 0.294312 20.2281 1.50185 18.4239 3.5876C17.6039 4.57559 17.0025 5.61847 16.4558 6.60646C16.0184 7.48467 15.5811 8.36288 15.1437 9.1862L14.9797 9.51553C10.7701 17.7488 6.66979 26.0918 2.89753 34.325L2.84286 34.4348C2.46017 35.313 2.0228 36.2461 1.58544 37.2341C1.31209 37.8379 1.03874 38.4965 0.765385 39.2101C0.0546696 41.2409 -0.164012 43.162 0.10934 45.138C0.710715 49.2546 3.44424 52.7126 7.21649 54.2494C8.63793 54.8532 10.114 55.1276 11.6448 55.1276C12.0822 55.1276 12.6289 55.0728 13.0662 55.0179C14.8704 54.7983 16.7291 54.1945 18.5333 53.1517C20.7748 51.8892 22.9069 50.0779 25.3124 47.4433C27.7179 50.0779 29.9047 51.8892 32.0915 53.1517C33.8957 54.1945 35.7544 54.7983 37.5586 55.0179C37.9959 55.0728 38.5426 55.1276 38.98 55.1276C40.5108 55.1276 42.0416 54.8532 43.4083 54.2494C47.2352 52.7126 49.9141 49.1997 50.5155 45.138C50.9528 43.2169 50.7341 41.2958 50.0234 39.2649ZM25.3671 42.1191C22.4149 38.3867 20.5014 34.8739 19.8454 31.9099C19.572 30.6475 19.5173 29.5497 19.6814 28.5617C19.7907 27.6835 20.1187 26.9151 20.5561 26.2564C21.5948 24.7745 23.3443 23.8414 25.3671 23.8414C27.3899 23.8414 29.194 24.7196 30.1781 26.2564C30.6154 26.9151 30.9435 27.6835 31.0528 28.5617C31.2168 29.5497 31.1621 30.7024 30.8888 31.9099C30.2327 34.819 28.3193 38.3318 25.3671 42.1191ZM47.1806 44.6989C46.7979 47.5531 44.8844 50.023 42.2056 51.1208C40.8935 51.6697 39.472 51.8343 38.0506 51.6697C36.6838 51.505 35.3171 51.0659 33.8957 50.2426C31.9275 49.1448 29.9594 47.4433 27.6632 44.9184C31.2715 40.4725 33.4583 36.4108 34.2784 32.7881C34.661 31.0866 34.7157 29.5497 34.5517 28.1226C34.333 26.7504 33.841 25.488 33.0756 24.3902C31.3808 21.9203 28.538 20.4932 25.3671 20.4932C22.1962 20.4932 19.3533 21.9752 17.6585 24.3902C16.8932 25.488 16.4011 26.7504 16.1824 28.1226C15.9638 29.5497 16.0184 31.1415 16.4558 32.7881C17.2759 36.4108 19.5173 40.5274 23.0709 44.9733C20.8294 47.4982 18.8066 49.1997 16.8385 50.2975C15.4171 51.1208 14.0503 51.5599 12.6835 51.7246C11.2074 51.8892 9.786 51.6697 8.52858 51.1757C5.84973 50.0779 3.93627 47.608 3.55358 44.7538C3.38956 43.3816 3.49891 42.0094 4.04561 40.4725C4.20962 39.9236 4.48297 39.3747 4.75633 38.7161C5.13902 37.8379 5.57638 36.9048 6.01374 35.9717L6.06842 35.8619C9.84067 27.6835 13.8863 19.3405 18.0959 11.2171L18.2599 10.8877C18.6973 10.0644 19.1346 9.1862 19.572 8.36288C20.0094 7.48467 20.5014 6.66135 21.1028 5.9478C22.2509 4.63048 23.7816 3.91693 25.4764 3.91693C27.1712 3.91693 28.702 4.63048 29.85 5.9478C30.4514 6.66135 30.9435 7.48467 31.3808 8.36288C31.8182 9.1862 32.2555 10.0644 32.6929 10.8877L32.8569 11.2171C37.0119 19.3954 41.0575 27.7384 44.8297 35.9168V35.9717C45.2671 36.8499 45.6498 37.8379 46.0872 38.7161C46.3605 39.3747 46.6339 39.9236 46.7979 40.4725C47.2352 41.8996 47.3993 43.2718 47.1806 44.6989Z" fill="#FF5A5F"/>
</g>
<defs>
<clipPath id="clip0_1_478">
<rect width="175" height="54.8333" fill="white" transform="translate(0 0.294312)"/>
</clipPath>
</defs>
</svg>
