<svg width="175" height="40" viewBox="0 0 175 40" fill="none" xmlns="http://www.w3.org/2000/svg">
<g opacity="0.9" clip-path="url(#clip0_1_503)">
<path d="M70.2186 22.7152L67.1724 14.3824C67.0481 14.0416 66.573 14.0416 66.4484 14.3824L63.4027 22.7157C63.381 22.775 63.3738 22.8387 63.3817 22.9013C63.3896 22.964 63.4123 23.0238 63.4478 23.0756C63.4834 23.1275 63.5308 23.1698 63.586 23.1991C63.6412 23.2283 63.7025 23.2436 63.7647 23.2435H69.8565C69.9188 23.2435 69.9801 23.2282 70.0353 23.199C70.0905 23.1697 70.1379 23.1273 70.1734 23.0754C70.209 23.0236 70.2316 22.9637 70.2395 22.9011C70.2473 22.8384 70.2401 22.7747 70.2184 22.7155L70.2186 22.7152ZM71.6259 27.399H61.9957C61.9169 27.399 61.84 27.4235 61.7753 27.4691C61.7107 27.5148 61.6613 27.5794 61.6339 27.6544L59.7379 32.8393C59.7105 32.9142 59.6612 32.9789 59.5965 33.0245C59.5318 33.0702 59.4549 33.0946 59.3761 33.0947H55.2021C55.139 33.0946 55.0769 33.0789 55.0211 33.0489C54.9654 33.0189 54.9178 32.9754 54.8824 32.9224C54.8471 32.8694 54.8251 32.8083 54.8184 32.7447C54.8116 32.681 54.8204 32.6166 54.8439 32.5572L64.4537 8.26445C64.4825 8.19189 64.532 8.12974 64.5959 8.08599C64.6598 8.04224 64.7351 8.0189 64.8122 8.01897H68.8089C68.9664 8.01897 69.1082 8.11612 69.1671 8.26445L78.7767 32.557C78.8002 32.6164 78.8091 32.6808 78.8024 32.7446C78.7957 32.8083 78.7738 32.8694 78.7384 32.9225C78.703 32.9756 78.6554 33.0191 78.5996 33.0492C78.5438 33.0792 78.4816 33.0949 78.4184 33.0949H74.2452C74.1664 33.0949 74.0894 33.0704 74.0248 33.0247C73.9601 32.979 73.9107 32.9143 73.8834 32.8393L71.9872 27.6544C71.9598 27.5794 71.9104 27.5148 71.8457 27.4691C71.781 27.4235 71.7041 27.399 71.6253 27.399H71.6259ZM80.7323 16.5445H84.3023C84.4047 16.5445 84.5029 16.5858 84.5752 16.6592C84.6476 16.7327 84.6883 16.8323 84.6883 16.9362V32.7029C84.6883 32.8068 84.6476 32.9065 84.5752 32.9799C84.5029 33.0534 84.4047 33.0947 84.3023 33.0947H80.7323C80.6299 33.0947 80.5317 33.0534 80.4593 32.9799C80.3869 32.9065 80.3463 32.8068 80.3463 32.7029V16.936C80.3463 16.8321 80.3869 16.7324 80.4593 16.659C80.5317 16.5855 80.6299 16.5442 80.7323 16.5442V16.5445ZM97.7083 20.3798C97.7083 20.4836 97.6676 20.5833 97.5952 20.6567C97.5229 20.7302 97.4247 20.7715 97.3223 20.7715H97.2142C95.449 20.7715 94.1543 21.2013 93.3307 22.061C92.5067 22.9208 92.0954 24.3419 92.0954 26.3241V32.7029C92.0954 32.8068 92.0548 32.9065 91.9824 32.9799C91.91 33.0534 91.8118 33.0947 91.7094 33.0947H88.1744C88.072 33.0947 87.9738 33.0534 87.9015 32.9799C87.8291 32.9065 87.7884 32.8068 87.7884 32.7029V16.936C87.7884 16.8321 87.8291 16.7324 87.9015 16.659C87.9738 16.5855 88.072 16.5442 88.1744 16.5442H91.6739C91.7763 16.5442 91.8745 16.5855 91.9469 16.659C92.0193 16.7324 92.0599 16.8321 92.0599 16.936V20.0546H92.1307C92.5543 18.7651 93.225 17.7745 94.1432 17.0814C95.0607 16.3891 96.1904 16.0426 97.5318 16.0426H97.7083V20.3795V20.3798ZM107.47 20.234C107.367 20.234 107.269 20.2753 107.197 20.3488C107.124 20.4222 107.084 20.5219 107.084 20.6258V27.1838C107.084 27.8526 107.212 28.3302 107.472 28.6167C107.73 28.9032 108.178 29.0466 108.813 29.0466H109.168C109.271 29.0466 109.369 29.0878 109.441 29.1613C109.514 29.2348 109.555 29.3344 109.555 29.4383V32.7385C109.555 32.8423 109.514 32.942 109.441 33.0154C109.369 33.0889 109.271 33.1302 109.168 33.1302H107.648C106.071 33.1302 104.859 32.7183 104.012 31.8944C103.165 31.0705 102.741 29.847 102.741 28.2226V20.6258C102.741 20.5219 102.7 20.4222 102.628 20.3488C102.556 20.2753 102.457 20.234 102.355 20.234H100.127C100.024 20.234 99.9261 20.1928 99.8537 20.1193C99.7813 20.0458 99.7406 19.9462 99.7406 19.8423V16.936C99.7406 16.8321 99.7813 16.7324 99.8537 16.659C99.9261 16.5855 100.024 16.5442 100.127 16.5442H102.355C102.458 16.5442 102.556 16.503 102.628 16.4295C102.701 16.356 102.741 16.2564 102.741 16.1525V10.3087C102.741 10.2048 102.782 10.1052 102.854 10.0317C102.927 9.95829 103.025 9.91702 103.127 9.91702H106.697C106.8 9.91702 106.898 9.95829 106.97 10.0317C107.043 10.1052 107.083 10.2048 107.083 10.3087V16.1525C107.083 16.2564 107.124 16.356 107.196 16.4295C107.269 16.503 107.367 16.5442 107.469 16.5442H110.051C110.153 16.5442 110.252 16.5855 110.324 16.659C110.396 16.7324 110.437 16.8321 110.437 16.936V19.8426C110.437 19.9465 110.396 20.0461 110.324 20.1196C110.252 20.193 110.153 20.2343 110.051 20.2343H107.47V20.234ZM123.817 28.1869C124.629 27.3271 125.035 26.2047 125.035 24.8193C125.035 23.4347 124.629 22.3117 123.817 21.452C123.005 20.5923 121.94 20.1625 120.622 20.1625C119.304 20.1625 118.239 20.5923 117.427 21.452C116.616 22.3117 116.209 23.4347 116.209 24.8193C116.209 26.2047 116.616 27.3271 117.427 28.1869C118.239 29.0466 119.304 29.4764 120.622 29.4764C121.94 29.4764 123.005 29.0466 123.817 28.1869ZM115.574 32.593C114.374 31.9007 113.426 30.8913 112.732 29.566C112.038 28.2407 111.691 26.6586 111.691 24.8193C111.691 22.9808 112.038 21.3982 112.732 20.0729C113.426 18.7476 114.374 17.739 115.574 17.0459C116.774 16.3533 118.092 16.007 119.528 16.007C120.799 16.007 121.887 16.2578 122.794 16.7592C123.699 17.2606 124.423 17.9654 124.964 18.8729H125.035V16.936C125.035 16.8321 125.075 16.7324 125.148 16.659C125.22 16.5855 125.318 16.5442 125.421 16.5442H128.956C129.058 16.5442 129.156 16.5855 129.229 16.659C129.301 16.7324 129.342 16.8321 129.342 16.936V32.7027C129.342 32.8066 129.301 32.9062 129.229 32.9797C129.156 33.0531 129.058 33.0944 128.956 33.0944H125.421C125.318 33.0944 125.22 33.0531 125.148 32.9797C125.075 32.9062 125.035 32.8066 125.035 32.7027V30.766H124.964C124.423 31.674 123.699 32.3781 122.793 32.8795C121.887 33.3809 120.799 33.6316 119.528 33.6316C118.092 33.6316 116.774 33.2853 115.574 32.593ZM144.042 28.1869C144.854 27.3271 145.26 26.2047 145.26 24.8193C145.26 23.4347 144.854 22.3117 144.042 21.452C143.231 20.5923 142.166 20.1625 140.848 20.1625C139.529 20.1625 138.465 20.5923 137.653 21.452C136.841 22.3117 136.435 23.4347 136.435 24.8193C136.435 26.2047 136.841 27.3271 137.653 28.1869C138.465 29.0466 139.529 29.4764 140.848 29.4764C142.166 29.4764 143.231 29.0466 144.042 28.1869ZM138.677 32.8795C137.77 32.3781 137.047 31.674 136.506 30.766H136.435V32.7027C136.435 32.8066 136.394 32.9062 136.322 32.9797C136.249 33.0531 136.151 33.0944 136.049 33.0944H132.479C132.376 33.0944 132.278 33.0531 132.206 32.9797C132.133 32.9062 132.093 32.8066 132.093 32.7027V8.40991C132.093 8.30602 132.133 8.20639 132.206 8.13292C132.278 8.05946 132.376 8.01819 132.479 8.01819H136.049C136.151 8.01819 136.249 8.05946 136.322 8.13292C136.394 8.20639 136.435 8.30602 136.435 8.40991V18.8727H136.506C137.047 17.9652 137.77 17.2606 138.677 16.7592C139.582 16.2575 140.671 16.0068 141.942 16.0068C143.377 16.0068 144.696 16.3531 145.896 17.0456C147.096 17.7387 148.043 18.7473 148.738 20.0724C149.432 21.3985 149.779 22.9811 149.779 24.8196C149.779 26.6589 149.432 28.2407 148.738 29.5663C148.043 30.8916 147.096 31.9009 145.896 32.593C144.696 33.2856 143.378 33.6321 141.942 33.6321C140.671 33.6321 139.583 33.3814 138.677 32.8797L138.677 32.8795ZM155.794 33.0947H152.224C152.122 33.0947 152.024 33.0534 151.951 32.9799C151.879 32.9065 151.838 32.8068 151.838 32.7029V8.4107C151.838 8.30681 151.879 8.20717 151.951 8.13371C152.024 8.06024 152.122 8.01897 152.224 8.01897H155.794C155.897 8.01897 155.995 8.06024 156.067 8.13371C156.14 8.20717 156.18 8.30681 156.18 8.4107V32.7029C156.18 32.8068 156.14 32.9065 156.067 32.9799C155.995 33.0534 155.897 33.0947 155.794 33.0947ZM164.215 20.3777C163.623 20.8462 163.224 21.5226 163.017 22.4073C162.96 22.6512 163.148 22.8852 163.395 22.8852H170.189C170.424 22.8852 170.61 22.6711 170.572 22.435C170.436 21.598 170.082 20.9308 169.511 20.4315C168.84 19.8465 167.963 19.554 166.88 19.554C165.798 19.554 164.909 19.8285 164.215 20.3777ZM172.917 18.3177C174.306 19.8585 175 22.0378 175 24.8554V25.3233C175 25.4272 174.959 25.5269 174.887 25.6003C174.814 25.6738 174.716 25.7151 174.614 25.7151H163.264C163.207 25.7152 163.151 25.7278 163.1 25.7521C163.049 25.7764 163.003 25.8117 162.967 25.8556C162.931 25.8995 162.904 25.951 162.889 26.0063C162.874 26.0617 162.872 26.1197 162.881 26.1763C163.063 27.2229 163.519 28.0545 164.251 28.6705C165.086 29.3756 166.139 29.7274 167.41 29.7274C169.051 29.7274 170.569 29.0776 171.966 27.7779C172.136 27.6191 172.407 27.6528 172.539 27.8458L174.275 30.3737C174.329 30.4524 174.353 30.5485 174.342 30.644C174.331 30.7394 174.286 30.8274 174.215 30.8913C173.364 31.648 172.417 32.2866 171.399 32.7902C170.269 33.3511 168.939 33.6321 167.41 33.6321C165.645 33.6321 164.103 33.2675 162.785 32.5395C161.467 31.8114 160.443 30.7845 159.714 29.4587C158.985 28.1333 158.62 26.5991 158.62 24.8554C158.62 23.1124 158.973 21.5722 159.679 20.2343C160.385 18.8972 161.373 17.8583 162.644 17.1177C163.915 16.3779 165.398 16.0073 167.092 16.0073C169.586 16.0073 171.528 16.7777 172.917 18.3177ZM85.1546 10.7156C85.1546 12.1932 83.9742 13.3911 82.5178 13.3911C81.0612 13.3911 79.8807 12.1932 79.8807 10.7154C79.8807 9.2375 81.0614 8.0396 82.5178 8.0396C83.9742 8.0396 85.1546 9.2375 85.1546 10.7154" fill="#333333"/>
<path d="M20.3309 0.953302L3.35588 8.08089C2.41191 8.47731 2.42169 9.83817 3.37158 10.2202L20.4174 17.0796C21.915 17.6824 23.5829 17.6824 25.0806 17.0796L42.1266 10.22C43.0763 9.83817 43.0865 8.47758 42.1421 8.08115L25.1676 0.953041C23.6189 0.302762 21.8793 0.302762 20.3306 0.953041" fill="#FCB400"/>
<path d="M24.2614 20.825V37.9609C24.2614 38.7757 25.0713 39.334 25.8179 39.0337L44.8121 31.5522C45.024 31.467 45.2057 31.3192 45.3337 31.1279C45.4617 30.9366 45.5302 30.7107 45.5301 30.4794V13.3438C45.5301 12.5287 44.7202 11.9706 43.9737 12.271L24.9795 19.7524C24.7677 19.8377 24.586 19.9855 24.4579 20.1768C24.3299 20.3681 24.2615 20.594 24.2614 20.8252" fill="#18BFFF"/>
<path d="M19.826 21.7092L14.1889 24.4712L13.6165 24.7519L1.71706 30.5377C0.963015 30.907 0 30.3491 0 29.4988V13.4156C0 13.108 0.155441 12.8424 0.363897 12.6426C0.449415 12.5562 0.546436 12.4823 0.652132 12.4232C0.93625 12.2501 1.34184 12.2039 1.68669 12.3423L19.7313 19.5976C20.6485 19.9668 20.7205 21.271 19.826 21.7095" fill="#F82B60"/>
<path d="M19.8261 21.7092L14.189 24.4712L0.364014 12.6423C0.449549 12.556 0.546568 12.4823 0.652249 12.4232C0.936366 12.2501 1.34195 12.2039 1.68681 12.3423L19.7314 19.5976C20.6486 19.9668 20.7206 21.271 19.8261 21.7095" fill="black" fill-opacity="0.25"/>
</g>
<defs>
<clipPath id="clip0_1_503">
<rect width="175" height="38.6503" fill="white" transform="translate(0 0.465698)"/>
</clipPath>
</defs>
</svg>
