<svg width="32" height="33" viewBox="0 0 32 33" fill="none" xmlns="http://www.w3.org/2000/svg">
<path fill-rule="evenodd" clip-rule="evenodd" d="M16 1.83337C7.90001 1.83337 1.33334 8.40004 1.33334 16.5C1.33334 24.6 7.90001 31.1667 16 31.1667C24.1 31.1667 30.6667 24.6 30.6667 16.5C30.6667 8.40004 24.1 1.83337 16 1.83337ZM13.0573 12.1094C12.8145 11.8579 12.6801 11.5211 12.6831 11.1715C12.6861 10.8219 12.8264 10.4875 13.0736 10.2403C13.3208 9.99307 13.6552 9.85285 14.0048 9.84981C14.3544 9.84677 14.6912 9.98116 14.9427 10.224L20.276 15.5574C20.526 15.8074 20.6664 16.1465 20.6664 16.5C20.6664 16.8536 20.526 17.1927 20.276 17.4427L14.9427 22.776C14.6912 23.0189 14.3544 23.1533 14.0048 23.1503C13.6552 23.1472 13.3208 23.007 13.0736 22.7598C12.8264 22.5126 12.6861 22.1782 12.6831 21.8286C12.6801 21.479 12.8145 21.1422 13.0573 20.8907L17.448 16.5L13.0573 12.1094Z" fill="#F2C229"/>
</svg>
