<svg width="175" height="29" viewBox="0 0 175 29" fill="none" xmlns="http://www.w3.org/2000/svg">
<g opacity="0.9">
<path d="M87.9552 10.2923C88.0622 8.23601 88.7995 6.55569 89.9515 5.24481V3.49805H88.4203C85.3254 3.49805 82.7052 4.68416 81.1821 7.36425H81.093V3.79295H73.1548V25.5724H81.0946V16.7802C81.0946 13.0485 82.1867 10.2031 86.5925 10.2031C87.0721 10.2064 87.521 10.2339 87.9552 10.2923Z" fill="#4A89DC"/>
<path d="M148.069 10.2128C148.729 8.28777 149.798 6.57342 151.189 5.19773V3.49634H149.661C146.564 3.49634 143.947 4.68245 142.416 7.36092H142.33V3.79287H134.387V25.5723H142.33V16.7801C142.33 13.0484 143.425 10.2031 147.831 10.2031L148.069 10.2128Z" fill="#4A89DC"/>
<path d="M104.08 9.39617C102.855 8.75937 101.15 8.33483 99.7939 8.33483C98.8832 8.33483 97.3098 8.714 97.3098 9.82071C97.3098 11.3082 99.7939 11.5189 100.892 11.736C104.593 12.4554 107.393 14.1552 107.393 18.1834C107.393 23.9131 102.025 26.2983 96.8286 26.2983C93.6413 26.2983 90.5059 25.4054 87.7966 23.7915L90.676 18.3957C92.2883 19.504 94.9943 20.6043 96.9582 20.6043C97.9628 20.6043 99.4455 20.1392 99.4455 18.9499C99.4455 17.2517 96.9582 17.1626 94.4677 16.5274C91.9837 15.8906 89.4996 14.7045 89.4996 10.7978C89.4996 5.44733 94.4677 3.07349 99.3645 3.07349C101.895 3.07349 104.428 3.45427 106.736 4.47349L104.08 9.39617Z" fill="#4A89DC"/>
<path d="M175 25.5722H167.06V23.1497H166.973C165.576 25.3145 162.821 26.29 160.208 26.29C153.571 26.29 148.906 20.8974 148.906 14.6558C148.906 8.42056 153.488 3.06848 160.119 3.06848C162.692 3.06848 165.401 4.00181 167.059 5.91061V3.79279H174.997L175 25.5722ZM157.109 14.7027C157.109 17.4606 158.989 19.5833 162.214 19.5833C165.441 19.5833 167.313 17.4639 167.313 14.7027C167.313 12.0275 165.441 9.77844 162.214 9.77844C158.989 9.78006 157.109 12.0275 157.109 14.7027Z" fill="#4A89DC"/>
<path d="M133.135 15.9796H116.417C116.417 19.1183 118.123 20.8148 121.395 20.8148C123.096 20.8148 124.316 20.2655 125.191 18.8201H132.83C131.564 23.9583 126.544 26.2933 121.44 26.2933C114.027 26.2933 108.485 22.2148 108.485 14.7044C108.485 7.44512 113.585 3.07336 120.872 3.07336C128.638 3.07336 133.138 7.74489 133.138 15.1711L133.135 15.9796ZM125.759 11.5187C125.365 9.43818 123.401 8.08031 121.265 8.08031C118.95 8.08031 117.038 9.2648 116.55 11.5187H125.759Z" fill="#4A89DC"/>
<path d="M47.8998 14.3237C47.8917 14.1358 47.8787 13.9527 47.8641 13.7663C47.8641 13.7663 47.8641 13.7647 47.8641 13.7631C47.8641 13.7631 47.8641 13.7615 47.8641 13.7598C47.6859 11.7392 47.0183 9.84827 45.8857 8.1404C45.3801 7.37883 44.8016 6.68693 44.1551 6.06633C43.2104 5.1573 42.1167 4.40545 40.8836 3.81077C39.0282 2.92443 36.9785 2.47721 34.791 2.47721C34.5771 2.47721 34.3535 2.48045 34.1282 2.48855C32.5921 2.55822 31.1063 2.84989 29.7095 3.36355C28.3014 3.87235 27.0748 4.5448 26.0718 5.35174C25.8676 5.51378 25.6456 5.71309 25.4074 5.93184L25.2357 6.10035L25.0007 6.34989H25.0023H25.0039L24.8938 6.45846L24.8403 6.51679L24.56 6.8117C24.3525 7.04503 24.1549 7.27836 23.9701 7.50684L23.9685 7.5036L23.962 7.49711C23.578 7.96378 23.2231 8.44665 22.9623 8.88091C22.7856 9.15961 22.6123 9.44642 22.447 9.73323L20.1574 14.3626L20.1607 14.3659L20.0407 14.6008L19.788 15.1129C19.2857 16.1288 18.7477 17.1416 18.1465 17.9777C16.8065 19.4473 15.2914 20.1668 13.3438 20.1668C13.2076 20.1668 13.0683 20.1603 12.9257 20.1522C11.7525 20.1052 10.7463 19.8281 9.85347 19.2999C9.75787 19.2432 9.66551 19.1848 9.57639 19.1249C8.84722 18.6404 8.2882 18.0182 7.87014 17.242C7.39861 16.3622 7.18958 15.4629 7.21875 14.5101C7.22037 14.4842 7.22199 14.4615 7.22199 14.4404C7.28519 12.9237 7.86366 11.7441 9.02871 10.7249C9.31227 10.4802 9.6088 10.2728 9.91829 10.0881C9.96204 10.0622 10.0058 10.0379 10.0495 10.0152C10.9148 9.54364 11.9 9.30869 13.0294 9.30869L13.381 9.31841C15.1748 9.38647 16.5586 9.94711 17.662 11.0409L21.1231 4.82674C20.2951 4.27258 19.3602 3.79619 18.3296 3.40892C18.2907 3.39434 18.2502 3.37813 18.2097 3.36517C18.0866 3.32142 17.965 3.27605 17.8387 3.23554C16.7433 2.86934 15.5944 2.6441 14.4116 2.54202C14.3824 2.53716 14.35 2.53392 14.3208 2.53068C14.1394 2.51934 13.9546 2.49665 13.7731 2.48855C13.5755 2.48045 13.3762 2.47721 13.1817 2.47559H13.0699C10.8938 2.48369 8.87153 2.92929 7.02269 3.81239C4.95185 4.81054 3.27315 6.26401 2.02871 8.13716C0.787502 10.0103 0.110187 12.0892 0.0129647 14.3205C0.00486284 14.5117 1.72871e-06 14.7013 1.72871e-06 14.8876C-0.00161864 18.0085 1.13588 20.7534 3.39792 23.0575C5.7588 25.4751 8.8294 26.7779 12.5157 26.9318C12.7523 26.9416 12.9857 26.948 13.219 26.948C15.3044 26.948 17.2343 26.577 18.9648 25.8348C19.3975 25.6501 19.8171 25.433 20.2465 25.1916C20.4799 25.0571 20.7002 24.9145 20.919 24.7622L21.081 24.6536L21.3532 24.4673C21.6806 24.2323 21.9868 23.9779 22.285 23.7073L22.3887 23.6085C22.5637 23.4416 22.7387 23.273 22.9039 23.0997L23.5245 22.398L23.7611 22.1015L23.8713 21.9395L23.9815 21.7807C24.9035 20.2316 27.9044 14.5943 27.9044 14.5943V14.583L28.0826 14.2395L28.2317 13.9705C28.6741 13.1652 28.9933 12.5932 29.4162 11.992L29.4275 11.9742C30.4144 10.5434 32.1109 9.5242 34.1104 9.35244C37.4646 9.06401 40.4039 11.2677 40.6745 14.2751C40.9435 17.2825 38.4417 19.9545 35.0875 20.2446C34.3891 20.3045 33.7102 20.2575 33.0701 20.1166L33.0539 20.123C30.5926 19.611 29.0257 17.8156 28.2528 17.0135L25.025 22.949C25.025 22.949 26.028 23.9601 26.715 24.4656C27.4037 24.9696 28.2933 25.4654 29.003 25.7733C30.7255 26.5089 32.5986 26.9497 34.6678 26.9497C34.9076 26.9497 34.859 26.9497 35.1086 26.9399C38.7917 26.786 42.0745 25.3747 44.4419 22.9571C46.6845 20.661 47.9014 18.0392 47.9127 14.9362V14.8439C47.9111 14.6721 47.9063 14.4987 47.8998 14.3237Z" fill="#4A89DC"/>
<path d="M60.2469 26.308C58.573 26.308 57.0548 26.1136 55.692 25.7247C54.3293 25.3358 53.1659 24.7217 52.2017 23.8791C51.2344 23.0365 50.489 21.9638 49.964 20.6626C49.439 19.3615 49.1765 17.7929 49.1765 15.9652V3.78809H56.836V15.8679C56.836 17.2372 57.1633 18.2288 57.8163 18.8478C58.471 19.4684 59.3022 19.7779 60.3101 19.7779C61.3406 19.7779 62.1767 19.4895 62.8217 18.911C63.4633 18.3325 63.7874 17.3733 63.7874 16.0251V3.78809H71.4469V15.8048C71.4469 17.6973 71.1779 19.3064 70.6416 20.6302C70.1052 21.9557 69.3485 23.0381 68.3747 23.8807C67.396 24.7233 66.218 25.3358 64.8325 25.7263C63.4471 26.1136 61.9191 26.308 60.2469 26.308Z" fill="#4A89DC"/>
</g>
</svg>
