<svg width="175" height="42" viewBox="0 0 175 42" fill="none" xmlns="http://www.w3.org/2000/svg">
<g opacity="0.9" clip-path="url(#clip0_1_486)">
<path d="M152.029 20.711C152.029 14.2539 156.969 9.7032 163.514 9.7032C170.06 9.7032 175 14.2539 175 20.711C175 27.0451 170.06 31.7188 163.514 31.7188C156.969 31.7188 152.029 27.1066 152.029 20.711ZM168.516 20.711C168.516 17.6977 166.602 15.4838 163.576 15.4838C160.55 15.4838 158.636 17.6977 158.636 20.711C158.636 23.7243 160.55 25.9381 163.576 25.9381C166.602 25.9381 168.516 23.7858 168.516 20.711ZM147.706 15.6068C148.139 16.4678 148.324 17.3902 148.324 18.3741C148.324 20.711 147.089 22.8633 145.113 24.5237C147.83 25.8151 149.435 28.9514 149.435 31.9032C149.435 37.4379 144.928 41.1276 138.073 41.1276C131.219 41.1276 126.711 37.4994 126.711 31.9032C126.711 28.8899 128.317 25.8766 131.034 24.5237C128.996 22.8633 127.823 20.711 127.823 18.3741C127.823 13.5159 131.651 9.94918 137.703 9.94918C141.284 9.94918 142.334 10.5641 144.372 10.5641C145.73 10.5641 146.657 10.3797 148.324 9.51871C148.88 9.21123 149.312 9.08824 149.682 9.08824C150.485 9.08824 150.917 9.88768 150.917 10.8716C150.979 13.024 149.991 14.8074 147.706 15.6068ZM143.075 31.7188C143.075 29.2589 141.161 27.537 138.135 27.537C135.109 27.537 133.195 29.1974 133.195 31.7188C133.195 34.0556 135.295 35.9005 138.135 35.9005C140.914 35.9005 143.075 34.0556 143.075 31.7188ZM134.121 18.7431C134.121 20.834 135.912 22.4944 138.073 22.4944C140.296 22.4944 142.025 20.834 142.025 18.7431C142.025 16.5292 140.42 14.9918 138.073 14.9918C135.789 14.9918 134.121 16.4678 134.121 18.7431ZM123.747 21.1414V28.8284C123.747 30.3043 123.192 30.9193 121.586 30.9193H119.425C117.819 30.9193 117.264 30.3043 117.264 28.8284V21.3259C117.264 19.4196 116.955 18.0666 116.276 17.2057C115.535 16.2833 114.423 15.7913 113.003 15.7913C111.644 15.7913 110.409 16.2833 109.607 17.2057C108.866 18.0666 108.372 19.4196 108.372 21.2644V28.7669C108.372 30.3043 107.754 30.8578 106.21 30.8578H104.049C102.567 30.8578 101.888 30.3043 101.888 28.7669V11.5481C101.888 10.5641 102.382 10.1337 103.123 10.1337C104.234 10.1337 105.778 11.0561 106.951 12.8395C108.68 10.8101 111.336 9.76469 113.929 9.76469C117.078 9.76469 119.61 10.8716 121.277 12.7165C122.945 14.6229 123.747 17.0827 123.747 21.1414ZM90.0318 3.79958C90.0318 1.83171 91.6373 0.294312 93.7368 0.294312C95.7128 0.294312 97.4418 1.83171 97.4418 3.79958C97.4418 5.70596 95.7128 7.30485 93.7368 7.30485C91.6373 7.30485 90.0318 5.70596 90.0318 3.79958ZM90.464 28.8284V12.655C90.464 11.1791 91.0198 10.5641 92.6253 10.5641H94.7865C96.392 10.5641 96.9478 11.1791 96.9478 12.655V28.8284C96.9478 30.3043 96.392 30.9193 94.7865 30.9193H92.6253C91.0198 30.9193 90.464 30.3043 90.464 28.8284ZM79.0402 28.8284V8.53477C79.0402 3.43061 81.9425 0.540295 84.289 0.540295C85.03 0.540295 85.524 1.03226 85.524 1.9547V28.7669C85.524 30.3043 84.9065 30.8578 83.3627 30.8578H81.2015C79.7195 30.9193 79.0402 30.3658 79.0402 28.8284ZM52.3642 20.711C52.3642 14.2539 57.3042 9.7032 63.8497 9.7032C70.3952 9.7032 75.3352 14.2539 75.3352 20.711C75.3352 27.0451 70.3952 31.7188 63.8497 31.7188C57.3042 31.7188 52.3642 27.1066 52.3642 20.711ZM68.7897 20.711C68.7897 17.6977 66.8754 15.4838 63.8497 15.4838C60.8239 15.4838 58.9097 17.6977 58.9097 20.711C58.9097 23.7243 60.8239 25.9381 63.8497 25.9381C66.8754 25.9381 68.7897 23.7858 68.7897 20.711ZM49.0296 12.655V29.8739C49.0296 30.8578 48.5356 31.2883 47.7946 31.2883C46.6831 31.2883 45.1394 30.3658 44.0279 28.644C42.4224 30.5503 39.9524 31.6573 37.1736 31.6573C34.3949 31.6573 32.1718 30.6733 30.5046 29.1974C28.5903 27.3525 27.5406 24.5237 27.5406 20.465V12.655C27.5406 11.1791 28.0963 10.5641 29.7018 10.5641H31.8631C33.4686 10.5641 34.0243 11.1791 34.0243 12.655V19.9115C34.0243 22.3714 34.4566 23.6628 35.2593 24.5237C35.9386 25.2617 36.9266 25.6307 38.1616 25.6307C39.3966 25.6307 40.5699 25.1387 41.2491 24.3392C42.0519 23.4783 42.4841 22.1254 42.4841 20.0345V12.655C42.4841 11.1176 43.1016 10.5641 44.6454 10.5641H46.8066C48.3504 10.5026 49.0296 11.1176 49.0296 12.655ZM23.0946 1.9547V29.8739C23.0946 30.8578 22.6006 31.2883 21.8596 31.2883C20.7481 31.2883 19.2043 30.3658 18.0928 28.7055C16.7343 30.3043 13.9555 31.7188 10.7445 31.7188C4.32251 31.7188 0 27.0451 0 20.711C0 14.4999 4.38426 9.7032 10.7445 9.7032C13.091 9.7032 15.1288 10.4411 16.6725 11.4866V8.53477C16.6725 3.43061 19.5748 0.540295 21.9213 0.540295C22.6623 0.540295 23.0946 1.03226 23.0946 1.9547ZM16.6725 20.711C16.6725 17.5747 14.4495 15.4838 11.6708 15.4838C8.83028 15.4838 6.60727 17.5747 6.60727 20.711C6.60727 23.8473 8.83028 25.9381 11.6708 25.9381C14.4495 25.9381 16.6725 23.9088 16.6725 20.711Z" fill="#58CC02"/>
</g>
<defs>
<clipPath id="clip0_1_486">
<rect width="175" height="40.8333" fill="white" transform="translate(0 0.294312)"/>
</clipPath>
</defs>
</svg>
