<svg width="50" height="50" viewBox="0 0 50 50" fill="none" xmlns="http://www.w3.org/2000/svg">
<path d="M32.0624 26.6325C32.3574 25.9875 33.1749 25.39 33.8799 25.31C34.5849 25.23 35.2274 24.585 35.3074 23.88C35.3924 23.18 35.9874 22.36 36.6299 22.0625C36.9536 21.8978 37.217 21.6351 37.3826 21.3119C37.5483 20.9887 37.6077 20.6215 37.5524 20.2625C37.4074 19.5675 37.7224 18.605 38.2424 18.1275C38.5003 17.8702 38.6699 17.5378 38.727 17.1779C38.784 16.8181 38.7255 16.4495 38.5599 16.125C38.3885 15.7761 38.2993 15.3925 38.2993 15.0038C38.2993 14.615 38.3885 14.2314 38.5599 13.8825C38.7259 13.5582 38.7846 13.1894 38.7276 12.8295C38.6705 12.4696 38.5006 12.1371 38.2424 11.88C37.7224 11.3975 37.4099 10.4375 37.5524 9.74504C37.6084 9.38535 37.5494 9.01715 37.3837 8.69301C37.2181 8.36886 36.9542 8.10533 36.6299 7.94004C36.2864 7.75678 35.9889 7.49801 35.7599 7.18321C35.5308 6.8684 35.3761 6.50575 35.3074 6.12254C35.2504 5.76421 35.0817 5.43303 34.8253 5.17624C34.569 4.91946 34.2381 4.75017 33.8799 4.69254C33.4965 4.62517 33.1336 4.47126 32.8186 4.24253C32.5037 4.01379 32.2451 3.71625 32.0624 3.37254C31.8975 3.0483 31.6337 2.78491 31.3092 2.62043C30.9848 2.45596 30.6164 2.39891 30.2574 2.45754C29.8721 2.51154 29.4796 2.47702 29.1096 2.35659C28.7397 2.23616 28.4021 2.033 28.1224 1.76254C27.6399 1.23754 26.7399 1.09754 26.1224 1.44504C25.5049 1.79254 24.4924 1.79254 23.8774 1.44504C23.5539 1.27683 23.1851 1.21643 22.8249 1.27265C22.4646 1.32887 22.1318 1.49876 21.8749 1.75754C21.5954 2.02831 21.2578 2.23168 20.8878 2.35213C20.5178 2.47257 20.1252 2.50692 19.7399 2.45254C19.3813 2.39485 19.0137 2.45265 18.6902 2.61757C18.3666 2.78249 18.1039 3.046 17.9399 3.37004C17.6424 4.01004 16.8249 4.60754 16.1199 4.68754C15.761 4.7452 15.4295 4.91475 15.1727 5.172C14.9159 5.42925 14.7469 5.76105 14.6899 6.12004C14.6221 6.50325 14.4677 6.86593 14.2385 7.18046C14.0093 7.49499 13.7114 7.75307 13.3674 7.93504C13.0442 8.10117 12.7817 8.36513 12.6174 8.68927C12.4531 9.0134 12.3953 9.38114 12.4524 9.74004C12.5899 10.4325 12.2774 11.395 11.7574 11.875C11.2374 12.355 11.0924 13.255 11.4399 13.8775C11.7874 14.4925 11.7874 15.505 11.4399 16.12C11.2741 16.4449 11.2154 16.8139 11.2725 17.1742C11.3295 17.5344 11.4993 17.8673 11.7574 18.125C12.2799 18.6 12.5899 19.5625 12.4524 20.26C12.3953 20.6182 12.4531 20.9853 12.6174 21.3087C12.7818 21.6321 13.0443 21.8951 13.3674 22.06C14.0124 22.3575 14.6049 23.1775 14.6874 23.8775C14.7724 24.5825 15.4124 25.2275 16.1174 25.3075C16.8224 25.3875 17.6399 25.9875 17.9374 26.63C18.1027 26.9528 18.3657 27.2151 18.689 27.3795C19.0123 27.5438 19.3792 27.6017 19.7374 27.545C20.4324 27.4075 21.3949 27.7175 21.8724 28.24C22.1299 28.4976 22.4624 28.667 22.8221 28.724C23.1818 28.7811 23.5503 28.7228 23.8749 28.5575C24.4899 28.21 25.5024 28.21 26.1199 28.5575C26.7374 28.905 27.6374 28.76 28.1199 28.24C28.6024 27.715 29.5599 27.4075 30.2549 27.545C30.6139 27.6029 30.982 27.5458 31.3066 27.3819C31.6312 27.218 31.8957 26.9557 32.0624 26.6325ZM24.9999 23.4975C22.7456 23.4975 20.5835 22.602 18.9895 21.0079C17.3954 19.4139 16.4999 17.2519 16.4999 14.9975C16.4999 12.7432 17.3954 10.5812 18.9895 8.98713C20.5835 7.39307 22.7456 6.49754 24.9999 6.49754C27.2542 6.49754 29.4162 7.39307 31.0103 8.98713C32.6044 10.5812 33.4999 12.7432 33.4999 14.9975C33.4999 17.2519 32.6044 19.4139 31.0103 21.0079C29.4162 22.602 27.2542 23.4975 24.9999 23.4975ZM14.9374 28.5225L11.8299 46.145L19.6499 44.985L26.6024 48.75L29.6974 31.1975C27.1984 31.9282 24.5635 32.0669 22.0016 31.6026C19.4397 31.1383 17.021 30.0838 14.9374 28.5225ZM34.9024 28.6425C34.1217 29.21 33.2936 29.7093 32.4274 30.135L30.5574 40.725L38.9799 36.155L34.9024 28.6425Z" fill="#1FB890"/>
</svg>
