<svg width="175" height="58" viewBox="0 0 175 58" fill="none" xmlns="http://www.w3.org/2000/svg">
<g opacity="0.9" clip-path="url(#clip0_1_459)">
<path d="M169.549 35.0928L174.404 38.3293C172.828 40.6501 169.06 44.6318 162.544 44.6318C154.453 44.6318 148.427 38.3718 148.427 30.4085C148.427 21.9342 154.517 16.1853 161.863 16.1853C169.251 16.1853 172.871 22.062 174.042 25.2345L174.681 26.8527L155.645 34.7309C157.093 37.584 159.35 39.0319 162.544 39.0319C165.738 39.0319 167.952 37.4563 169.549 35.0928ZM154.623 29.9614L167.335 24.6809C166.632 22.9137 164.546 21.6574 162.054 21.6574C158.882 21.6574 154.474 24.468 154.623 29.9614Z" fill="#FF302F"/>
<path d="M139.25 1.6853H145.382V43.333H139.25V1.6853Z" fill="#20B15A"/>
<path d="M129.584 17.2926H135.503V42.5878C135.503 53.0849 129.307 57.4072 121.982 57.4072C115.084 57.4072 110.932 52.7655 109.377 48.9967L114.807 46.7398C115.786 49.0606 118.15 51.8073 121.982 51.8073C126.688 51.8073 129.584 48.8903 129.584 43.4395V41.3954H129.371C127.965 43.0988 125.283 44.6318 121.876 44.6318C114.764 44.6318 108.249 38.4358 108.249 30.4512C108.249 22.424 114.764 16.1641 121.876 16.1641C125.261 16.1641 127.965 17.6758 129.371 19.3366H129.584V17.2926ZM130.009 30.4512C130.009 25.4262 126.667 21.7639 122.408 21.7639C118.107 21.7639 114.487 25.4262 114.487 30.4512C114.487 35.4123 118.107 39.0107 122.408 39.0107C126.667 39.032 130.009 35.4123 130.009 30.4512Z" fill="#3686F7"/>
<path d="M74.5857 30.3448C74.5857 38.5423 68.198 44.568 60.3625 44.568C52.5269 44.568 46.1392 38.521 46.1392 30.3448C46.1392 22.1046 52.5269 16.1002 60.3625 16.1002C68.198 16.1002 74.5857 22.1046 74.5857 30.3448ZM68.3684 30.3448C68.3684 25.2346 64.6635 21.7214 60.3625 21.7214C56.0614 21.7214 52.3566 25.2346 52.3566 30.3448C52.3566 35.4123 56.0614 38.9681 60.3625 38.9681C64.6635 38.9681 68.3684 35.4123 68.3684 30.3448Z" fill="#FF302F"/>
<path d="M105.651 30.4085C105.651 38.6061 99.2634 44.6318 91.4279 44.6318C83.5923 44.6318 77.2047 38.6061 77.2047 30.4085C77.2047 22.1684 83.5923 16.1853 91.4279 16.1853C99.2634 16.1853 105.651 22.1471 105.651 30.4085ZM99.4125 30.4085C99.4125 25.2984 95.7076 21.7852 91.4066 21.7852C87.1056 21.7852 83.4007 25.2984 83.4007 30.4085C83.4007 35.4761 87.1056 39.0319 91.4066 39.0319C95.7289 39.0319 99.4125 35.4548 99.4125 30.4085Z" fill="#FFBA40"/>
<path d="M22.7603 38.3932C13.8389 38.3932 6.855 31.1964 6.855 22.2749C6.855 13.3535 13.8389 6.15668 22.7603 6.15668C27.5724 6.15668 31.0856 8.05169 33.6833 10.479L37.963 6.19926C34.3433 2.72862 29.51 0.0883789 22.7603 0.0883789C10.5386 0.0883789 0.254395 10.0532 0.254395 22.2749C0.254395 34.4967 10.5386 44.4615 22.7603 44.4615C29.3609 44.4615 34.3433 42.2897 38.2398 38.2441C42.2428 34.2412 43.4777 28.62 43.4777 24.0635C43.4777 22.6369 43.3074 21.1677 43.1157 20.0818H22.7603V26.0011H37.2604C36.8345 29.7059 35.6634 32.2397 33.9388 33.9644C31.8521 36.0723 28.5518 38.3932 22.7603 38.3932Z" fill="#3686F7"/>
</g>
<defs>
<clipPath id="clip0_1_459">
<rect width="175" height="57.4219" fill="white"/>
</clipPath>
</defs>
</svg>
