<svg width="40" height="40" viewBox="0 0 40 40" fill="none" xmlns="http://www.w3.org/2000/svg">
<circle cx="20" cy="20" r="20" fill="#F8FBFB"/>
<path d="M23.55 21C24.3 21 24.96 20.59 25.3 19.97L28.88 13.48C28.9643 13.3284 29.0076 13.1575 29.0055 12.9841C29.0034 12.8106 28.9561 12.6408 28.8682 12.4913C28.7803 12.3418 28.6549 12.2178 28.5044 12.1316C28.3539 12.0455 28.1835 12.0001 28.01 12H13.21L12.27 10C12.27 10 9.99998 10 9.00003 10C8.00007 10 8.00006 12 9.00003 12C10 12 11 12 11 12L14.6 19.59L13.25 22.03C12.52 23.37 13.48 25 15 25C15 25 26 25 27 25C28.0001 25 28.0001 23 27 23C26 23 15 23 15 23L16.1 21H23.55ZM14.16 14H26.31L23.55 19H16.53L14.16 14ZM15 26C13.9 26 13.01 26.9 13.01 28C13.01 29.1 13.9 30 15 30C16.1 30 17 29.1 17 28C17 26.9 16.1 26 15 26ZM25 26C23.9 26 23.01 26.9 23.01 28C23.01 29.1 23.9 30 25 30C26.1 30 27 29.1 27 28C27 26.9 26.1 26 25 26Z" fill="#122025"/>
</svg>
