<svg width="191" height="65" viewBox="0 0 191 65" fill="none" xmlns="http://www.w3.org/2000/svg">
<path d="M36 28.5C34.5333 28.5 33.3333 29.7 33.3333 31.1667V36.5H14.6666V31.1667C14.6666 29.7 13.4666 28.5 12 28.5C10.5333 28.5 9.33331 29.7 9.33331 31.1667V37.8333C9.33331 40.0333 11.1333 41.8333 13.3333 41.8333V43.1667C13.3333 43.9 13.9333 44.5 14.6666 44.5C15.4 44.5 16 43.9 16 43.1667V41.8333H32V43.1667C32 43.9 32.6 44.5 33.3333 44.5C34.0666 44.5 34.6666 43.9 34.6666 43.1667V41.8333C36.8666 41.8333 38.6666 40.0333 38.6666 37.8333V31.1667C38.6666 29.7 37.4666 28.5 36 28.5Z" fill="black"/>
<path d="M17.3333 31.1667V33.8333H30.6666V31.1667C30.6666 28.6867 32.3733 26.62 34.6666 26.02V24.5C34.6666 22.3 32.8666 20.5 30.6666 20.5H17.3333C15.1333 20.5 13.3333 22.3 13.3333 24.5V26.02C15.6266 26.62 17.3333 28.6867 17.3333 31.1667Z" fill="#F2C229"/>
<circle cx="22" cy="26" r="1" fill="#122025"/>
<circle cx="26" cy="26" r="1" fill="#122025"/>
<path d="M63.28 19C65.7067 19 67.8133 19.4 69.6 20.2C71.4133 21 72.8 22.1467 73.76 23.64C74.72 25.1333 75.2 26.9067 75.2 28.96C75.2 30.9867 74.72 32.76 73.76 34.28C72.8 35.7733 71.4133 36.92 69.6 37.72C67.8133 38.52 65.7067 38.92 63.28 38.92H56.96V47H51.76V19H63.28ZM63.04 34.52C65.3067 34.52 67.0267 34.04 68.2 33.08C69.3733 32.12 69.96 30.7467 69.96 28.96C69.96 27.1733 69.3733 25.8 68.2 24.84C67.0267 23.88 65.3067 23.4 63.04 23.4H56.96V34.52H63.04ZM99.9147 36.44C99.9147 36.7867 99.888 37.28 99.8347 37.92H83.0747C83.368 39.4933 84.128 40.7467 85.3547 41.68C86.608 42.5867 88.1547 43.04 89.9947 43.04C92.3414 43.04 94.2747 42.2667 95.7947 40.72L98.4747 43.8C97.5147 44.9467 96.3014 45.8133 94.8347 46.4C93.368 46.9867 91.7147 47.28 89.8747 47.28C87.528 47.28 85.4614 46.8133 83.6747 45.88C81.888 44.9467 80.5014 43.6533 79.5147 42C78.5547 40.32 78.0747 38.4267 78.0747 36.32C78.0747 34.24 78.5414 32.3733 79.4747 30.72C80.4347 29.04 81.7547 27.7333 83.4347 26.8C85.1147 25.8667 87.008 25.4 89.1147 25.4C91.1947 25.4 93.048 25.8667 94.6747 26.8C96.328 27.7067 97.608 29 98.5147 30.68C99.448 32.3333 99.9147 34.2533 99.9147 36.44ZM89.1147 29.4C87.5147 29.4 86.1547 29.88 85.0347 30.84C83.9414 31.7733 83.2747 33.0267 83.0347 34.6H95.1547C94.9414 33.0533 94.288 31.8 93.1947 30.84C92.1014 29.88 90.7414 29.4 89.1147 29.4ZM116.838 25.4C119.531 25.4 121.691 26.1867 123.318 27.76C124.944 29.3333 125.758 31.6667 125.758 34.76V47H120.758V35.4C120.758 33.5333 120.318 32.1333 119.438 31.2C118.558 30.24 117.304 29.76 115.678 29.76C113.838 29.76 112.384 30.32 111.318 31.44C110.251 32.5333 109.718 34.12 109.718 36.2V47H104.718V25.64H109.478V28.4C110.304 27.4133 111.344 26.6667 112.598 26.16C113.851 25.6533 115.264 25.4 116.838 25.4ZM132.1 25.64H137.1V47H132.1V25.64ZM134.62 22.12C133.714 22.12 132.954 21.84 132.34 21.28C131.727 20.6933 131.42 19.9733 131.42 19.12C131.42 18.2667 131.727 17.56 132.34 17C132.954 16.4133 133.714 16.12 134.62 16.12C135.527 16.12 136.287 16.4 136.9 16.96C137.514 17.4933 137.82 18.1733 137.82 19C137.82 19.88 137.514 20.6267 136.9 21.24C136.314 21.8267 135.554 22.12 134.62 22.12ZM156.503 45.84C155.916 46.32 155.196 46.68 154.343 46.92C153.516 47.16 152.636 47.28 151.703 47.28C149.356 47.28 147.543 46.6667 146.263 45.44C144.983 44.2133 144.343 42.4267 144.343 40.08V29.8H140.823V25.8H144.343V20.92H149.343V25.8H155.063V29.8H149.343V39.96C149.343 41 149.596 41.8 150.103 42.36C150.609 42.8933 151.343 43.16 152.303 43.16C153.423 43.16 154.356 42.8667 155.103 42.28L156.503 45.84ZM169.513 47.28C167.353 47.28 165.406 46.8133 163.673 45.88C161.939 44.9467 160.579 43.6533 159.593 42C158.633 40.32 158.153 38.4267 158.153 36.32C158.153 34.2133 158.633 32.3333 159.593 30.68C160.579 29.0267 161.939 27.7333 163.673 26.8C165.406 25.8667 167.353 25.4 169.513 25.4C171.699 25.4 173.659 25.8667 175.393 26.8C177.126 27.7333 178.473 29.0267 179.433 30.68C180.419 32.3333 180.913 34.2133 180.913 36.32C180.913 38.4267 180.419 40.32 179.433 42C178.473 43.6533 177.126 44.9467 175.393 45.88C173.659 46.8133 171.699 47.28 169.513 47.28ZM169.513 43C171.353 43 172.873 42.3867 174.073 41.16C175.273 39.9333 175.873 38.32 175.873 36.32C175.873 34.32 175.273 32.7067 174.073 31.48C172.873 30.2533 171.353 29.64 169.513 29.64C167.673 29.64 166.153 30.2533 164.953 31.48C163.779 32.7067 163.193 34.32 163.193 36.32C163.193 38.32 163.779 39.9333 164.953 41.16C166.153 42.3867 167.673 43 169.513 43Z" fill="#122025"/>
</svg>
