<svg width="175" height="38" viewBox="0 0 175 38" fill="none" xmlns="http://www.w3.org/2000/svg">
<g opacity="0.9" clip-path="url(#clip0_1_480)">
<path d="M61.7715 21.5471L60.7285 24.4991H60.6416C60.4677 23.8334 60.149 22.8205 59.6275 21.605L54.0356 7.56882H48.5596V29.9399H52.1813V16.1352C52.1813 15.267 52.1813 14.283 52.1523 13.0675C52.1233 12.4598 52.0654 11.9967 52.0364 11.6494H52.1233C52.2972 12.5177 52.5 13.1544 52.6449 13.5595L59.3667 29.882H61.9164L68.5803 13.4148C68.7252 13.0386 68.87 12.2861 69.0149 11.6494H69.1018C69.0149 13.2991 68.9569 14.775 68.928 15.6722V29.8531H72.7815V7.51094H67.5083L61.7715 21.5471ZM76.4321 13.82H80.1987V29.8531H76.4321V13.82ZM78.3444 7.04789C77.7069 7.04789 77.1854 7.27942 76.7508 7.68458C76.3162 8.08975 76.0844 8.61068 76.0844 9.24737C76.0844 9.85513 76.3162 10.3761 76.7508 10.7812C77.1854 11.1864 77.7069 11.389 78.3444 11.389C78.9818 11.389 79.5323 11.1575 79.9379 10.7812C80.3725 10.3761 80.6043 9.85513 80.6043 9.24737C80.6043 8.63962 80.3725 8.11869 79.9379 7.68458C79.5613 7.27942 79.0108 7.04789 78.3444 7.04789ZM93.5555 13.6753C92.8601 13.5306 92.1358 13.4438 91.4404 13.4438C89.731 13.4438 88.1664 13.82 86.8626 14.5724C85.5588 15.3249 84.5157 16.3668 83.8493 17.6691C83.154 19.0003 82.8063 20.5342 82.8063 22.2996C82.8063 23.8334 83.154 25.1936 83.8204 26.4381C84.4867 27.6536 85.4139 28.6376 86.6598 29.3032C87.8477 29.9688 89.2384 30.3161 90.803 30.3161C92.5993 30.3161 94.1349 29.9399 95.3518 29.2453L95.3808 29.2164V25.7435L95.2359 25.8593C94.6854 26.2644 94.048 26.6117 93.4106 26.8143C92.7442 27.0458 92.1358 27.1616 91.6142 27.1616C90.1076 27.1616 88.9197 26.7275 88.0795 25.7724C87.2103 24.8463 86.7757 23.573 86.7757 21.9812C86.7757 20.3316 87.2103 19.0293 88.1084 18.0742C89.0066 17.1192 90.1945 16.6272 91.6432 16.6272C92.8601 16.6272 94.106 17.0324 95.2359 17.8427L95.3808 17.9585V14.283L95.3518 14.2541C94.8593 14.0515 94.3088 13.82 93.5555 13.6753ZM105.985 13.5595C105.058 13.5595 104.189 13.8489 103.435 14.4567C102.798 14.9776 102.363 15.7301 101.987 16.6272H101.958V13.82H98.1912V29.8531H101.958V21.6629C101.958 20.2737 102.248 19.1161 102.885 18.2768C103.522 17.4086 104.334 16.9745 105.319 16.9745C105.666 16.9745 106.014 17.0613 106.449 17.1192C106.854 17.235 107.144 17.3507 107.347 17.4954L107.492 17.6112V13.8489L107.405 13.82C107.144 13.6463 106.623 13.5595 105.985 13.5595ZM116.242 13.4727C113.605 13.4727 111.49 14.2541 110.012 15.7879C108.506 17.3218 107.781 19.4345 107.781 22.097C107.781 24.5859 108.535 26.6117 109.983 28.0877C111.432 29.5347 113.402 30.2872 115.865 30.2872C118.444 30.2872 120.501 29.5058 121.978 27.943C123.485 26.3802 124.209 24.2965 124.209 21.7208C124.209 19.174 123.514 17.1481 122.094 15.6722C120.733 14.1962 118.733 13.4727 116.242 13.4727ZM119.255 25.8014C118.56 26.6985 117.459 27.1326 116.097 27.1326C114.735 27.1326 113.634 26.6985 112.852 25.7435C112.07 24.8463 111.693 23.544 111.693 21.8944C111.693 20.1869 112.099 18.8846 112.852 17.9585C113.634 17.0324 114.706 16.5693 116.068 16.5693C117.401 16.5693 118.444 17.0034 119.197 17.9006C119.95 18.7978 120.356 20.1001 120.356 21.8076C120.298 23.544 119.979 24.9042 119.255 25.8014ZM132.612 20.4763C131.424 19.9843 130.671 19.6081 130.323 19.2898C130.033 19.0003 129.888 18.5952 129.888 18.0742C129.888 17.6401 130.062 17.206 130.497 16.9166C130.931 16.6272 131.424 16.4825 132.148 16.4825C132.786 16.4825 133.452 16.5983 134.089 16.7719C134.727 16.9456 135.306 17.206 135.77 17.5533L135.915 17.6691V14.1383L135.828 14.1094C135.393 13.9357 134.814 13.7621 134.118 13.6174C133.423 13.5016 132.786 13.4438 132.264 13.4438C130.468 13.4438 128.99 13.8779 127.831 14.8329C126.672 15.7301 126.122 16.9456 126.122 18.3637C126.122 19.1161 126.238 19.7817 126.498 20.3316C126.759 20.8815 127.136 21.4024 127.657 21.8365C128.179 22.2417 128.932 22.7047 129.975 23.1388C130.844 23.5151 131.511 23.8045 131.916 24.036C132.322 24.2675 132.583 24.528 132.786 24.7306C132.93 24.9621 133.017 25.2515 133.017 25.6277C133.017 26.6985 132.206 27.2195 130.555 27.2195C129.917 27.2195 129.251 27.1037 128.469 26.8432C127.686 26.5828 126.962 26.2065 126.353 25.7724L126.209 25.6567V29.3321L126.296 29.3611C126.846 29.6215 127.512 29.7952 128.324 29.9978C129.135 30.1425 129.859 30.2582 130.497 30.2582C132.438 30.2582 134.031 29.8241 135.161 28.8691C136.32 27.943 136.929 26.7564 136.929 25.2226C136.929 24.1518 136.639 23.1967 136.002 22.4732C135.161 21.7786 134.118 21.0551 132.612 20.4763ZM146.867 13.4727C144.23 13.4727 142.115 14.2541 140.637 15.7879C139.16 17.3218 138.406 19.4345 138.406 22.097C138.406 24.5859 139.16 26.6117 140.608 28.0877C142.057 29.5347 144.027 30.2872 146.49 30.2872C149.069 30.2872 151.126 29.5058 152.603 27.943C154.11 26.3802 154.834 24.2965 154.834 21.7208C154.834 19.174 154.139 17.1481 152.719 15.6722C151.358 14.1962 149.358 13.4727 146.867 13.4727ZM149.851 25.8014C149.156 26.6985 148.055 27.1326 146.693 27.1326C145.302 27.1326 144.23 26.6985 143.448 25.7435C142.666 24.8463 142.289 23.544 142.289 21.8944C142.289 20.1869 142.695 18.8846 143.448 17.9585C144.23 17.0324 145.302 16.5693 146.664 16.5693C147.968 16.5693 149.04 17.0034 149.793 17.9006C150.546 18.7978 150.952 20.1001 150.952 21.8076C150.952 23.544 150.575 24.9042 149.851 25.8014ZM174.971 16.9166V13.82H171.175V9.07373L171.06 9.10267L167.467 10.1735L167.38 10.2024V13.82H161.701V11.7941C161.701 10.868 161.933 10.1445 162.339 9.68148C162.744 9.21843 163.353 8.98691 164.106 8.98691C164.627 8.98691 165.178 9.10267 165.786 9.36314L165.931 9.44996V6.17967L165.844 6.15073C165.323 5.97709 164.627 5.86133 163.729 5.86133C162.599 5.86133 161.614 6.12179 160.716 6.5559C159.818 7.04789 159.151 7.71352 158.659 8.61068C158.166 9.4789 157.906 10.4629 157.906 11.5916V13.82H155.269V16.8877H157.906V29.8531H161.701V16.9166H167.38V25.1647C167.38 28.5507 168.974 30.2582 172.161 30.2582C172.682 30.2582 173.233 30.1714 173.754 30.0846C174.305 29.9688 174.71 29.8241 174.942 29.7084L174.971 29.6794V26.5828L174.826 26.6985C174.594 26.8432 174.392 26.959 174.044 27.0458C173.754 27.1326 173.493 27.1616 173.291 27.1616C172.537 27.1616 172.016 26.9879 171.639 26.5538C171.291 26.1487 171.118 25.483 171.118 24.4991V16.9166H174.971Z" fill="#737373"/>
<path d="M0 0.0443115H17.7608V17.7849H0V0.0443115Z" fill="#F25022"/>
<path d="M19.6151 0.0443115H37.3758V17.7849H19.6151V0.0443115Z" fill="#7FBA00"/>
<path d="M0 19.6371H17.7608V37.3777H0V19.6371Z" fill="#00A4EF"/>
<path d="M19.6151 19.6371H37.3758V37.3777H19.6151V19.6371Z" fill="#FFB900"/>
</g>
<defs>
<clipPath id="clip0_1_480">
<rect width="175" height="37.3333" fill="white" transform="translate(0 0.0443115)"/>
</clipPath>
</defs>
</svg>
