<svg width="67" height="67" viewBox="0 0 67 67" fill="none" xmlns="http://www.w3.org/2000/svg">
<rect x="26" y="22" width="19" height="23" fill="#122025"/>
<g filter="url(#filter0_d_1_39)">
<path d="M34 12.125C21.9199 12.125 12.125 21.9199 12.125 34C12.125 46.0801 21.9199 55.875 34 55.875C46.0801 55.875 55.875 46.0801 55.875 34C55.875 21.9199 46.0801 12.125 34 12.125ZM41.0361 34.3369L30.3721 42.0957C30.3136 42.1377 30.2447 42.1628 30.1729 42.1682C30.1011 42.1736 30.0292 42.1591 29.9651 42.1263C29.9011 42.0935 29.8472 42.0437 29.8096 41.9823C29.772 41.9209 29.7521 41.8503 29.752 41.7783V26.2705C29.7517 26.1984 29.7715 26.1276 29.809 26.066C29.8465 26.0044 29.9004 25.9544 29.9646 25.9215C30.0288 25.8886 30.1009 25.8742 30.1728 25.8798C30.2447 25.8854 30.3137 25.9107 30.3721 25.9531L41.0361 33.707C41.0865 33.7427 41.1276 33.7899 41.156 33.8447C41.1843 33.8995 41.1991 33.9603 41.1991 34.022C41.1991 34.0837 41.1843 34.1445 41.156 34.1993C41.1276 34.2541 41.0865 34.3013 41.0361 34.3369V34.3369Z" fill="#FBFDFD"/>
</g>
<path d="M33.5 3.6999C33.5 1.6565 31.8385 -0.0211166 29.8076 0.204111C26.6759 0.551411 23.6026 1.33952 20.6801 2.55004C16.6157 4.23357 12.9227 6.70116 9.81192 9.81192C6.70116 12.9227 4.23357 16.6157 2.55004 20.6801C0.866503 24.7445 -1.39838e-07 29.1007 0 33.5C1.39838e-07 37.8993 0.866503 42.2555 2.55004 46.3199C4.23357 50.3843 6.70116 54.0773 9.81192 57.1881C12.9227 60.2988 16.6157 62.7664 20.6801 64.45C23.6026 65.6605 26.6759 66.4486 29.8076 66.7959C31.8385 67.0211 33.5 65.3435 33.5 63.3001V63.3001C33.5 61.2567 31.8354 59.6271 29.8124 59.3384C27.6531 59.0302 25.5361 58.4519 23.5119 57.6134C20.3453 56.3018 17.468 54.3793 15.0444 51.9556C12.6208 49.532 10.6982 46.6547 9.38657 43.4881C8.07491 40.3215 7.39981 36.9275 7.39981 33.5C7.39981 30.0725 8.07491 26.6785 9.38657 23.5119C10.6982 20.3453 12.6207 17.468 15.0444 15.0444C17.468 12.6207 20.3453 10.6982 23.5119 9.38657C25.5361 8.54813 27.6531 7.96979 29.8124 7.66162C31.8353 7.37291 33.5 5.7433 33.5 3.6999V3.6999Z" fill="#F2C229"/>
<defs>
<filter id="filter0_d_1_39" x="8.125" y="12.125" width="51.75" height="51.75" filterUnits="userSpaceOnUse" color-interpolation-filters="sRGB">
<feFlood flood-opacity="0" result="BackgroundImageFix"/>
<feColorMatrix in="SourceAlpha" type="matrix" values="0 0 0 0 0 0 0 0 0 0 0 0 0 0 0 0 0 0 127 0" result="hardAlpha"/>
<feOffset dy="4"/>
<feGaussianBlur stdDeviation="2"/>
<feComposite in2="hardAlpha" operator="out"/>
<feColorMatrix type="matrix" values="0 0 0 0 0 0 0 0 0 0 0 0 0 0 0 0 0 0 0.15 0"/>
<feBlend mode="normal" in2="BackgroundImageFix" result="effect1_dropShadow_1_39"/>
<feBlend mode="normal" in="SourceGraphic" in2="effect1_dropShadow_1_39" result="shape"/>
</filter>
</defs>
</svg>
