<svg width="43" height="50" viewBox="0 0 43 50" fill="none" xmlns="http://www.w3.org/2000/svg">
<path d="M28.0487 37.8049C28.7783 37.8049 29.4913 38.023 30.096 38.4313C30.7007 38.8396 31.1696 39.4193 31.4423 40.0961C31.715 40.7729 31.7791 41.5157 31.6264 42.2292C31.4737 42.9427 31.1111 43.5942 30.5853 44.1L28.256 46.3415H31.7072V48.7805H24.3901V46.6781L28.8938 42.3427C29.0391 42.203 29.1475 42.0295 29.2094 41.8377C29.2712 41.6458 29.2845 41.4416 29.2481 41.2434C29.2118 41.0451 29.1268 40.859 29.0009 40.7016C28.8749 40.5442 28.712 40.4205 28.5265 40.3415C28.3411 40.2626 28.1389 40.2308 27.9382 40.249C27.7374 40.2673 27.5444 40.335 27.3762 40.4462C27.2081 40.5573 27.0701 40.7084 26.9746 40.886C26.8791 41.0635 26.8292 41.2619 26.8292 41.4635H24.3901C24.3901 40.4932 24.7756 39.5626 25.4617 38.8765C26.1478 38.1904 27.0784 37.8049 28.0487 37.8049ZM35.3657 37.8049V42.683H37.8048V37.8049H40.2438V48.7805H37.8048V45.122H32.9267V37.8049H35.3657Z" fill="#FF89A8"/>
<path d="M1.21951 31.0361C1.22041 33.7542 2.16102 36.3904 3.88562 38.5084C5.61023 40.6264 8.0154 42.0992 10.703 42.6829L11.9868 38.8788C10.8112 38.6876 9.69317 38.2411 8.71334 37.5716C7.7335 36.9021 6.91623 36.0263 6.32043 35.0072H11.2805C12.3478 35.0072 13.3714 34.5884 14.1262 33.8429C14.8809 33.0974 15.3049 32.0864 15.3049 31.0321V23.0821C15.3049 22.0279 14.8809 21.0168 14.1262 20.2714C13.3714 19.5259 12.3478 19.1071 11.2805 19.1071H5.36866C5.8597 15.265 7.75328 11.732 10.6941 9.17089C13.6349 6.6098 17.4208 5.19667 21.3415 5.19667C25.2621 5.19667 29.048 6.6098 31.9888 9.17089C34.9297 11.732 36.8232 15.265 37.3143 19.1071H31.4024C30.3351 19.1071 29.3115 19.5259 28.5568 20.2714C27.802 21.0168 27.3781 22.0279 27.3781 23.0821V31.0321C27.3781 32.0864 27.802 33.0974 28.5568 33.8429C29.3115 34.5884 30.3351 35.0072 31.4024 35.0072H37.439C38.5064 35.0072 39.53 34.5884 40.2847 33.8429C41.0394 33.0974 41.4634 32.0864 41.4634 31.0321V21.0946C41.4634 10.1176 32.4548 1.21951 21.3415 1.21951C10.2281 1.21951 1.21951 10.1176 1.21951 21.0946V31.0361Z" fill="#FF89A8"/>
</svg>
