<svg width="175" height="52" viewBox="0 0 175 52" fill="none" xmlns="http://www.w3.org/2000/svg">
<g opacity="0.9" clip-path="url(#clip0_1_489)">
<path fill-rule="evenodd" clip-rule="evenodd" d="M160.996 43.0239H166.008L174.681 21.047H169.719L166.135 31.9926L162.358 21.047H156.821L163.414 36.9215L160.996 43.0239ZM136.119 26.2641V37.5293H131.062V21.047H134.615L135.671 22.4869C137.047 21.3352 138.519 20.6626 140.215 20.6626C142.488 20.6626 144.216 21.3352 145.272 23C146.808 21.5909 148.441 20.6626 150.522 20.6626C154.426 20.6626 156.699 22.6795 156.699 28.1522V37.5293H151.642V28.7285C151.642 26.2001 150.617 25.4636 148.985 25.4636C148.025 25.4636 147.225 25.7194 146.328 26.2956C146.393 26.8719 146.425 27.4797 146.425 28.1522V37.5293H141.368V28.7285C141.368 26.2001 140.343 25.4636 138.679 25.4636C137.751 25.4636 136.983 25.6878 136.119 26.2641ZM118.482 27.6723H124.98C124.628 25.5284 123.475 24.5037 121.747 24.5037C120.274 24.5037 118.867 25.3681 118.482 27.6723ZM122.099 37.8498C117.234 37.8498 113.329 35.4493 113.329 29.1121C113.329 23.191 117.106 20.631 121.459 20.631C126.708 20.631 129.044 24.3111 129.044 30.1044H118.45C118.803 32.9525 120.563 33.7853 122.9 33.7853C125.159 33.7853 126.927 33.2276 128.295 32.3074L127.608 36.3185C126.303 37.3269 124.736 37.8498 122.099 37.8498ZM103.27 33.5935C104.422 33.5935 105.286 33.4008 106.182 32.7291V25.5599C105.382 25.0792 104.583 24.8558 103.43 24.8558C100.966 24.8558 99.5574 26.5198 99.5574 29.3039C99.5574 32.025 100.998 33.5935 103.27 33.5935ZM107.174 36.3137C105.862 37.3059 104.358 37.9137 102.214 37.9137C97.7008 37.9137 94.4367 35.1296 94.4367 29.4003C94.4367 23.7033 98.1815 20.631 102.982 20.631C104.102 20.631 105.19 20.7913 106.182 21.1749V14.179H111.239V37.5293H108.038L107.174 36.3137ZM73.0102 27.7678V15.5524H78.2587V27.6723C78.2587 32.0249 80.2109 32.9209 82.8995 32.9209C85.8123 32.9209 87.3161 31.6405 87.3161 27.6723V15.5524H92.597V27.7678C92.597 34.9693 89.4609 37.9777 82.6438 37.9777C76.3066 37.9777 73.0102 35.3853 73.0102 27.7678Z" fill="#645A53"/>
<path fill-rule="evenodd" clip-rule="evenodd" d="M59.6334 28.6838C59.4205 28.513 59.181 28.3981 58.9204 28.3487C57.381 29.8832 55.5025 31.4995 53.8345 32.5856C53.0648 33.0971 52.0968 33.3529 51.4558 33.3529C49.9804 33.3529 49.3394 31.9462 49.1468 29.71C48.8902 26.7066 48.717 23.109 48.717 17.5489C48.717 11.8462 47.4228 7.96948 43.9751 7.66516C43.8294 7.65222 43.6821 7.64331 43.5283 7.64331C41.4119 7.64331 40.3856 8.72945 39.0389 11.478C37.8848 13.8421 36.0888 17.2931 32.7543 23.8115C29.8682 29.4357 26.6616 34.4204 23.9034 37.8714C23.1353 38.8281 22.5283 39.4853 21.9577 39.8592C21.5765 40.1101 21.2107 40.2355 20.8254 40.2355C19.7369 40.2355 18.9421 39.3169 18.6766 37.1778C18.6135 36.6696 18.5803 36.0925 18.5803 35.4426C18.5803 31.0333 20.2484 23.8755 23.1337 13.3306C25.2501 5.66204 24.3525 0.422363 19.7344 0.422363C19.7272 0.422363 19.7199 0.422363 19.7126 0.422363C19.7029 0.422363 19.6932 0.422363 19.6826 0.422363L19.6794 0.423173C18.6337 0.435313 17.7669 0.814085 16.9317 1.47127C16.1094 2.11874 15.2863 3.51729 14.5182 5.39739C13.6522 7.51544 8.38665 18.0774 0.00591484 23.5186C-0.0928249 25.5872 1.07829 27.6551 3.45128 27.8793C5.61142 28.0841 7.14512 27.1735 9.11992 25.847C8.97181 26.5067 8.83503 27.1234 8.71039 27.6875C8.56309 28.3536 8.43764 28.9282 8.33728 29.392C8.18675 30.0823 8.09124 30.5267 8.06292 30.6497C7.78855 31.9082 7.59269 33.1036 7.46562 34.2383C6.28398 44.801 11.1797 50.0132 16.9131 50.0132C17.8713 50.0132 18.8207 49.8991 19.7636 49.6595C26.0805 48.0578 32.1619 40.8118 39.3602 24.1312C39.2509 25.9458 39.2396 27.6405 39.3181 29.2131C39.7924 38.773 43.5736 41.6413 48.9161 41.6413C52.9563 41.6413 56.74 39.533 58.6638 36.9124C60.0753 35.059 60.6524 33.0138 60.6524 31.4161C60.6524 30.1762 60.259 29.1864 59.6334 28.6838Z" fill="#EA5252"/>
</g>
<defs>
<clipPath id="clip0_1_489">
<rect width="175" height="50.7378" fill="white" transform="translate(0 0.421875)"/>
</clipPath>
</defs>
</svg>
