<svg width="20" height="20" viewBox="0 0 20 20" fill="none" xmlns="http://www.w3.org/2000/svg">
<path d="M10 5.19298C7.33984 5.19298 5.19296 7.33985 5.19296 10C5.19296 12.6602 7.33984 14.807 10 14.807C12.6602 14.807 14.807 12.6602 14.807 10C14.807 7.33985 12.6602 5.19298 10 5.19298ZM10 13.1242C8.27968 13.1242 6.87577 11.7203 6.87577 10C6.87577 8.2797 8.27968 6.87579 10 6.87579C11.7203 6.87579 13.1242 8.2797 13.1242 10C13.1242 11.7203 11.7203 13.1242 10 13.1242ZM15.0039 3.87579C14.3828 3.87579 13.8812 4.37736 13.8812 4.99845C13.8812 5.61954 14.3828 6.1211 15.0039 6.1211C15.625 6.1211 16.1266 5.62189 16.1266 4.99845C16.1267 4.85097 16.0978 4.7049 16.0415 4.56861C15.9851 4.43232 15.9024 4.30848 15.7982 4.2042C15.6939 4.09991 15.57 4.01723 15.4337 3.96087C15.2975 3.90452 15.1514 3.87561 15.0039 3.87579ZM19.3703 10C19.3703 8.70626 19.382 7.42423 19.3094 6.13282C19.2367 4.63282 18.8945 3.30157 17.7977 2.2047C16.6984 1.10548 15.3695 0.765638 13.8695 0.692982C12.5758 0.620326 11.2937 0.632045 10.0023 0.632045C8.70859 0.632045 7.42656 0.620326 6.13515 0.692982C4.63515 0.765638 3.3039 1.10783 2.20702 2.2047C1.1078 3.30392 0.767958 4.63282 0.695302 6.13282C0.622645 7.42657 0.634364 8.7086 0.634364 10C0.634364 11.2914 0.622645 12.5758 0.695302 13.8672C0.767958 15.3672 1.11015 16.6984 2.20702 17.7953C3.30624 18.8945 4.63515 19.2344 6.13515 19.307C7.4289 19.3797 8.71093 19.368 10.0023 19.368C11.2961 19.368 12.5781 19.3797 13.8695 19.307C15.3695 19.2344 16.7008 18.8922 17.7977 17.7953C18.8969 16.6961 19.2367 15.3672 19.3094 13.8672C19.3844 12.5758 19.3703 11.2938 19.3703 10ZM17.3078 15.5266C17.1367 15.9531 16.9305 16.2719 16.6 16.6C16.2695 16.9305 15.9531 17.1367 15.5266 17.3078C14.2937 17.7977 11.3664 17.6875 10 17.6875C8.63359 17.6875 5.7039 17.7977 4.47109 17.3102C4.04452 17.1391 3.72577 16.9328 3.39765 16.6024C3.06718 16.2719 2.86093 15.9555 2.68983 15.5289C2.20233 14.2938 2.31249 11.3664 2.31249 10C2.31249 8.6336 2.20233 5.70392 2.68983 4.47111C2.86093 4.04454 3.06718 3.72579 3.39765 3.39767C3.72812 3.06954 4.04452 2.86095 4.47109 2.68986C5.7039 2.20236 8.63359 2.31251 10 2.31251C11.3664 2.31251 14.2961 2.20236 15.5289 2.68986C15.9555 2.86095 16.2742 3.0672 16.6023 3.39767C16.9328 3.72814 17.1391 4.04454 17.3102 4.47111C17.7977 5.70392 17.6875 8.6336 17.6875 10C17.6875 11.3664 17.7977 14.2938 17.3078 15.5266Z" fill="#58666B"/>
</svg>
