<svg width="80" height="80" viewBox="0 0 80 80" fill="none" xmlns="http://www.w3.org/2000/svg">
<path d="M40 19.9707C28.916 19.9707 19.9707 28.916 19.9707 40C19.9707 51.084 28.916 60.0293 40 60.0293C51.084 60.0293 60.0293 51.084 60.0293 40C60.0293 28.916 51.084 19.9707 40 19.9707ZM40 53.0176C32.832 53.0176 26.9824 47.1679 26.9824 40C26.9824 32.832 32.832 26.9824 40 26.9824C47.168 26.9824 53.0176 32.832 53.0176 40C53.0176 47.1679 47.168 53.0176 40 53.0176ZM60.8496 14.4824C58.2617 14.4824 56.1719 16.5722 56.1719 19.1601C56.1719 21.748 58.2617 23.8379 60.8496 23.8379C63.4375 23.8379 65.5274 21.7578 65.5274 19.1601C65.5281 18.5456 65.4077 17.937 65.1729 17.3691C64.9381 16.8013 64.5935 16.2853 64.159 15.8508C63.7245 15.4162 63.2085 15.0717 62.6406 14.8369C62.0728 14.6021 61.4641 14.4816 60.8496 14.4824ZM79.043 40C79.043 34.6093 79.0918 29.2676 78.7891 23.8867C78.4864 17.6367 77.0606 12.0898 72.4903 7.51951C67.9102 2.93943 62.3731 1.52341 56.1231 1.22068C50.7324 0.917944 45.3906 0.966772 40.0098 0.966772C34.6191 0.966772 29.2774 0.917944 23.8965 1.22068C17.6465 1.52341 12.0996 2.94919 7.5293 7.51951C2.94922 12.0996 1.53321 17.6367 1.23047 23.8867C0.92774 29.2773 0.976568 34.6191 0.976568 40C0.976568 45.3808 0.92774 50.7324 1.23047 56.1133C1.53321 62.3633 2.95899 67.9101 7.5293 72.4804C12.1094 77.0605 17.6465 78.4765 23.8965 78.7793C29.2871 79.082 34.6289 79.0332 40.0098 79.0332C45.4004 79.0332 50.7422 79.082 56.1231 78.7793C62.3731 78.4765 67.9199 77.0508 72.4903 72.4804C77.0703 67.9004 78.4864 62.3633 78.7891 56.1133C79.1016 50.7324 79.043 45.3906 79.043 40ZM70.4492 63.0273C69.7364 64.8047 68.877 66.1328 67.5 67.5C66.1231 68.8769 64.8047 69.7363 63.0274 70.4492C57.8906 72.4902 45.6934 72.0312 40 72.0312C34.3067 72.0312 22.0996 72.4902 16.9629 70.459C15.1856 69.7461 13.8574 68.8867 12.4902 67.5097C11.1133 66.1328 10.2539 64.8144 9.54102 63.0371C7.50977 57.8906 7.96876 45.6933 7.96876 40C7.96876 34.3066 7.50977 22.0996 9.54102 16.9629C10.2539 15.1855 11.1133 13.8574 12.4902 12.4902C13.8672 11.123 15.1856 10.2539 16.9629 9.54099C22.0996 7.50974 34.3067 7.96873 40 7.96873C45.6934 7.96873 57.9004 7.50974 63.0371 9.54099C64.8145 10.2539 66.1426 11.1133 67.5098 12.4902C68.8867 13.8672 69.7461 15.1855 70.459 16.9629C72.4903 22.0996 72.0313 34.3066 72.0313 40C72.0313 45.6933 72.4903 57.8906 70.4492 63.0273Z" fill="white"/>
</svg>
