<svg width="20" height="20" viewBox="0 0 20 20" fill="none" xmlns="http://www.w3.org/2000/svg">
<path d="M10 20C4.477 20 0 15.523 0 10C0 4.477 4.477 0 10 0C15.523 0 20 4.477 20 10C19.994 15.52 15.52 19.994 10 20ZM5.12 16.545L5.115 16.555C6.2375 17.3959 7.55806 17.9328 8.94888 18.1138C10.3397 18.2948 11.7537 18.1137 13.054 17.588C12.6749 15.5493 12.113 13.5489 11.375 11.611C9.67992 12.202 8.13019 13.1473 6.829 14.384C6.18774 14.9912 5.63259 15.6833 5.179 16.441L5.172 16.452V16.442L5.154 16.477L5.142 16.497L5.135 16.51L5.118 16.546L5.12 16.545ZM14.779 11.045C14.287 11.045 13.795 11.079 13.307 11.145C13.9442 12.9255 14.4456 14.7517 14.807 16.608C16.5064 15.383 17.6615 13.5438 18.027 11.481C16.969 11.1891 15.8765 11.0414 14.779 11.042V11.045ZM1.817 9.955V10.011C1.81882 11.9376 2.50052 13.8017 3.742 15.275C5.35028 12.7905 7.72927 10.9023 10.514 9.9L10.633 9.866C10.456 9.475 10.29 9.126 10.124 8.8C7.45593 9.54808 4.6999 9.93652 1.929 9.955H1.817ZM14.466 9.349C15.7068 9.35398 16.9448 9.46708 18.166 9.687C18.1024 7.99541 17.5107 6.3662 16.474 5.028C15.2642 6.38093 13.7585 7.43634 12.074 8.112L12.103 8.1L12.072 8.113C12.2664 8.51867 12.4492 8.92984 12.62 9.346L12.661 9.446C13.261 9.38 13.863 9.347 14.466 9.349ZM6.377 2.677C5.30278 3.20721 4.35816 3.96694 3.60994 4.90248C2.86171 5.83802 2.32816 6.92652 2.047 8.091C4.377 8.055 6.697 7.761 8.962 7.213H8.99L9 7.2L9.054 7.187H9.06L9.1 7.179H9.116L9.137 7.173L9.177 7.163L9.2 7.153L9.222 7.147H9.242C8.36372 5.60898 7.40713 4.11702 6.376 2.677H6.377ZM10 1.839C9.45259 1.83763 8.90635 1.88954 8.369 1.994C9.4166 3.44559 10.3779 4.95754 11.248 6.522C12.8061 5.96705 14.1958 5.02157 15.284 3.776C13.8067 2.5266 11.9348 1.84041 10 1.839Z" fill="#58666B"/>
</svg>
