<svg width="20" height="12" viewBox="0 0 20 12" fill="none" xmlns="http://www.w3.org/2000/svg">
<path d="M12.8594 0.897753H17.5352V2.03213H12.8594V0.897753ZM8.17422 5.38603C9.20781 4.8915 9.74922 4.13916 9.74922 2.97666C9.74922 0.677441 8.03828 0.119629 6.0625 0.119629H0.625V11.6603H6.21484C8.31016 11.6603 10.2766 10.6524 10.2766 8.30869C10.2766 6.86025 9.59219 5.78916 8.17422 5.38603ZM3.16094 2.08838H5.53984C6.45625 2.08838 7.27891 2.34385 7.27891 3.40791C7.27891 4.3876 6.63906 4.78135 5.73203 4.78135H3.16094V2.08838ZM5.86797 9.70088H3.15859V6.52275H5.92188C7.0375 6.52275 7.74297 6.98916 7.74297 8.17041C7.74297 9.33291 6.90156 9.70088 5.86797 9.70088ZM19.3633 7.60322C19.3633 5.13057 17.9172 3.07041 15.3016 3.07041C12.7586 3.07041 11.0289 4.98525 11.0289 7.49541C11.0289 10.097 12.6672 11.8829 15.3016 11.8829C17.2961 11.8829 18.5875 10.9853 19.2086 9.07041H17.1859C16.9656 9.78525 16.0703 10.1603 15.3742 10.1603C14.0289 10.1603 13.3258 9.37275 13.3258 8.03447H19.3469C19.3539 7.89619 19.3633 7.75088 19.3633 7.60322ZM13.3258 6.58603C13.3984 5.48682 14.132 4.8001 15.2289 4.8001C16.382 4.8001 16.9586 5.47744 17.0594 6.58603H13.3258Z" fill="#02A39A"/>
</svg>
